<?xml version="1.0" encoding="utf-8"?>
<!-- Generator: Adobe Illustrator 22.0.1, SVG Export Plug-In . SVG Version: 6.00 Build 0)  -->
<svg version="1.1" id="Layer_1" xmlns="http://www.w3.org/2000/svg" xmlns:xlink="http://www.w3.org/1999/xlink" x="0px" y="0px"
	 viewBox="0 0 25 25" style="enable-background:new 0 0 25 25;" xml:space="preserve">
<style type="text/css">
	.st0{fill:none;}
	.st1{fill:#1B90EA;}
</style>
<g>
	<title>background</title>
	<rect id="canvas_background" x="-1" y="-1" class="st0" width="27" height="27"/>
</g>
<g>
	<title>Layer 1</title>
	<path id="svg_2" class="st0" d="M15.4,38l-0.2,0v0C15.3,38,15.3,38,15.4,38z"/>
	<path id="svg_11" class="st1" d="M16,6.3c1.6,0,2.1,0,2.1,0c0.1,0,0.2,0,0.3-0.1c0.1-0.1,0.1-0.2,0.1-0.2l0.1-3.7
		c0-0.4,0-0.4-2.4-0.4l-0.3,0c-0.3,0-0.5,0-0.8,0c-0.6,0-1.3,0.1-1.9,0.4c-0.4,0.1-0.8,0.3-1.1,0.6c-0.7,0.5-1.2,1.1-1.6,1.9
		c-0.4,0.8-0.6,1.8-0.6,2.8V10H6.8c-0.2,0-0.3,0.2-0.4,0.3l-0.1,4c0,0.1,0,0.2,0.1,0.3s0.2,0.1,0.2,0.1l3.1,0l0.1,8
		c0,0.2,0.2,0.3,0.4,0.3h4c0.2,0,0.3-0.2,0.4-0.3l0.1-8h2.9c0.2,0,0.3-0.1,0.3-0.3l0.6-4c0-0.1,0-0.2-0.1-0.3s-0.2-0.1-0.3-0.1
		L14.7,10l0-2.8C14.7,7.2,14.7,6.3,16,6.3z"/>
</g>
</svg>
