<?xml version="1.0" encoding="utf-8"?>
<!-- Generator: Adobe Illustrator 22.0.1, SVG Export Plug-In . SVG Version: 6.00 Build 0)  -->
<svg version="1.1" id="Layer_1" xmlns="http://www.w3.org/2000/svg" xmlns:xlink="http://www.w3.org/1999/xlink" x="0px" y="0px"
	 viewBox="0 0 25 25" style="enable-background:new 0 0 25 25;" xml:space="preserve">
<style type="text/css">
	.st0{fill:none;}
	.st1{fill:#1B90EA;}
</style>
<g>
	<title>background</title>
	<rect id="canvas_background" x="-1" y="-1" class="st0" width="27" height="27"/>
</g>
<g>
	<title>Layer 1</title>
	<path id="svg_6" class="st1" d="M18.1,0.4H6.9c-3.6,0-6.5,2.9-6.5,6.5v11.1c0,3.6,2.9,6.5,6.5,6.5h11.1c3.6,0,6.5-2.9,6.5-6.5V6.9
		C24.6,3.3,21.7,0.4,18.1,0.4z M12.5,18.4c-3.3,0-5.9-2.6-5.9-5.9c0-3.3,2.6-5.9,5.9-5.9s5.9,2.6,5.9,5.9
		C18.4,15.8,15.8,18.4,12.5,18.4z M2.4,15.3v-1.2c0-0.2,0.1-0.3,0.3-0.3S3,14,3,14.1v1.2c0,0.2-0.1,0.3-0.3,0.3S2.4,15.5,2.4,15.3z
		 M3,8.6v3.9c0,0.2-0.1,0.3-0.3,0.3s-0.3-0.1-0.3-0.3V8.6c0-0.2,0.1-0.3,0.3-0.3S3,8.4,3,8.6z M19.9,6.1c-0.4,0-0.8-0.4-0.8-0.8
		s0.4-0.8,0.8-0.8c0.4,0,0.8,0.4,0.8,0.8S20.3,6.1,19.9,6.1z"/>
</g>
</svg>
