<?xml version="1.0" encoding="utf-8"?>
<!-- Generator: Adobe Illustrator 22.0.1, SVG Export Plug-In . SVG Version: 6.00 Build 0)  -->
<svg version="1.1" id="Layer_1" xmlns="http://www.w3.org/2000/svg" xmlns:xlink="http://www.w3.org/1999/xlink" x="0px" y="0px"
	 viewBox="0 0 25 25" style="enable-background:new 0 0 25 25;" xml:space="preserve">
<style type="text/css">
	.st0{fill:none;}
	.st1{fill:#173872;}
</style>
<g>
	<title>background</title>
	<rect id="canvas_background" x="-1" y="-1" class="st0" width="27" height="27"/>
</g>
<g>
	<title>Layer 1</title>
	<path id="svg_2" class="st1" d="M20.4,8.4c-0.2-2-1.3-3.7-3.1-4.9c-1.5-1-3.1-1.3-5.1-1.2c-1.5,0.1-2.8,0.5-3.9,1.2
		C6.2,4.8,4.9,6.6,4.6,8.9c-0.2,1.3,0,2.6,0.6,3.7c0.4,0.8,1,1.3,1.8,1.7c0.1,0.1,0.6,0.3,0.9,0c0.1-0.1,0.2-0.3,0.3-0.4
		c0.3-0.9,0.3-1.6-0.2-2.2C7.4,11,7.4,10.3,7.5,9.7c0.1-1.7,0.9-3.1,2.3-3.9c1-0.6,2.2-0.9,3.6-0.7c0.6,0.1,1.1,0.2,1.5,0.4
		c1.3,0.6,2,1.6,2.1,3c0.1,1.5-0.1,2.9-0.7,4.2c-0.3,0.6-0.7,1.1-1.1,1.4c-0.6,0.5-1.2,0.6-1.8,0.4c-0.7-0.2-1.1-0.9-1-1.7
		c0.1-0.4,0.2-0.9,0.4-1.3c0.1-0.5,0.3-0.9,0.4-1.4c0.1-0.6,0.2-1.1,0.2-1.6c0-0.7-0.4-1.2-0.9-1.6c-0.6-0.3-1.2-0.3-1.9,0
		C9.8,7.3,9.3,7.9,9,8.9c-0.2,0.9-0.1,1.7,0.2,2.7c0,0.1,0,0.1,0,0.2c-0.2,0.7-0.3,1.4-0.5,2.1c-0.3,1.3-0.6,2.6-0.9,4
		c-0.1,0.4-0.1,0.9-0.2,1.3c0,0.2,0,0.4,0,0.5c0,0.1,0,0.2,0,0.4l0,0.1l0,1.7c0,0.3,0.2,0.6,0.5,0.7c0.1,0,0.2,0,0.2,0
		c0.2,0,0.4-0.1,0.5-0.3c0,0,0,0,0,0l0.8-1.3c0.9-1.3,1.3-2.7,1.6-4.1c0.1-0.3,0.1-0.5,0.2-0.8c0.8,0.8,1.9,1.1,3.2,1
		c2-0.2,3.5-1.3,4.6-3.1C20.2,12.3,20.6,10.4,20.4,8.4z M18.4,10.9c0.4-1.6,0-3.2,0-3.3c-0.1-0.2,0.1-0.4,0.2-0.4
		c0.2-0.1,0.4,0.1,0.4,0.2c0,0.1,0.5,1.8,0,3.6c0,0.2-0.2,0.3-0.3,0.3c0,0-0.1,0-0.1,0C18.5,11.3,18.4,11.1,18.4,10.9z"/>
</g>
</svg>
