<?xml version="1.0" encoding="utf-8"?>
<!-- Generator: Adobe Illustrator 22.0.1, SVG Export Plug-In . SVG Version: 6.00 Build 0)  -->
<svg version="1.1" id="Layer_1" xmlns="http://www.w3.org/2000/svg" xmlns:xlink="http://www.w3.org/1999/xlink" x="0px" y="0px"
	 viewBox="0 0 500 500" style="enable-background:new 0 0 500 500;" xml:space="preserve">
<style type="text/css">
	.st0{fill:#112648;}
</style>
<path class="st0" d="M31.9,250c0,120.5,97.6,218.1,218.1,218.1c120.5,0,218.1-97.6,218.1-218.1c0-120.5-97.6-218.1-218.1-218.1
	C129.5,31.9,31.9,129.5,31.9,250z M77.4,250c0-14,1.6-27.6,4.8-40.6l40.6,40.6l-9.1,54.5l36.3,36.3v49.9
	C106.1,359.5,77.4,308.1,77.4,250z M210.3,82c12.7-3.1,26-4.6,39.7-4.6c15.2,0,29.9,2,43.9,5.6l-7.5,12.5l9.1,9.1h27.3l7.5-7.5
	c6.4,3.4,12.4,7,18.2,11.1l-16.6,5.5l-18.2,18.2l18.2,9.1v9.1h-18.2v18.2c0,0,12.5,9.1,27.3,9.1c14.4,0,8-19.9,18.2-27.3
	c10.3-7.4,22.7-5.7,22.7-5.7l5.9,1.5c11.1,14.6,19.9,31,25.9,48.7v0.9c0,0-12.8-9.1-36.3-9.1c-23.5,0-45.4,9.1-45.4,9.1
	s-25.6,7.5-27.3,27.3c-2.8,34.1,9.1,45.4,9.1,45.4l45.4,27.3v88.4c-29.7,24.3-67.7,38.8-109,38.8c-19.5,0-38.2-3.2-55.8-9.2
	l46.7-108.9l-9.1-45.4c0,0-36.1-45.4-54.5-45.4c-18.4,0-27.3,27.3-27.3,27.3l-18.2-36.3l54.5-36.3l27.3-72.7L210.3,82z"/>
</svg>
