<?xml version="1.0" encoding="utf-8"?>
<!-- Generator: Adobe Illustrator 22.0.1, SVG Export Plug-In . SVG Version: 6.00 Build 0)  -->
<svg version="1.1" id="Layer_1" xmlns="http://www.w3.org/2000/svg" xmlns:xlink="http://www.w3.org/1999/xlink" x="0px" y="0px"
	 viewBox="0 0 25 25" style="enable-background:new 0 0 25 25;" xml:space="preserve">
<style type="text/css">
	.st0{fill:none;}
	.st1{fill:#1B90EA;}
</style>
<g>
	<title>background</title>
	<rect id="canvas_background" x="-1" y="-1" class="st0" width="27" height="27"/>
</g>
<g>
	<title>Layer 1</title>
	<path id="svg_2" class="st1" d="M23.8,5.4c-0.1-0.1-0.3-0.2-0.4-0.1c-0.4,0.2-0.8,0.3-1.1,0.4C23,4.9,23.3,4,23.3,4
		c0-0.1,0-0.3-0.1-0.4c-0.1-0.1-0.3-0.1-0.4,0c-1.4,0.7-2.2,0.9-2.6,1c-1.5-1.8-3.9-1.7-5.6-0.8c-1.7,0.9-3.2,2.8-2.7,4.9
		C6.5,8.3,3.3,4.2,3.3,4.2C3.2,4.1,3.1,4,3,4C2.9,4,2.8,4.1,2.7,4.2C1.2,6.7,2.4,8.8,3.3,9.9C2.9,9.7,2.5,9.5,2.5,9.5
		c-0.1-0.1-0.2,0-0.3,0C2,9.6,1.9,9.7,1.9,9.8c0,2.5,1.4,3.7,2.5,4.3c-0.3,0-0.5,0-0.5,0c-0.1,0-0.3,0-0.3,0.1
		c-0.1,0.1-0.1,0.2-0.1,0.4c0.9,2.3,2.6,3,3.6,3.2c-2.6,1.6-5.6,1.3-5.7,1.3c-0.2,0-0.3,0.1-0.4,0.2c-0.1,0.2,0,0.3,0.1,0.4
		c1.7,1.1,4.3,1.9,6.5,2c0.2,0,0.4,0,0.7,0c2.3,0,5.7-0.8,8.4-3c2.9-2.4,4.1-5.7,4.5-7.5c0.3-1.1,0.3-2.7,0.3-3.2
		c1.3-0.9,2.1-2.2,2.1-2.3C23.9,5.7,23.9,5.6,23.8,5.4z M16.1,17.4c-0.1,0-0.2,0-0.3-0.1c-0.1-0.1-0.1-0.4,0-0.5
		c0.2-0.2,0.4-0.4,0.6-0.6c0.1-0.1,0.3-0.2,0.5,0c0.1,0.1,0.2,0.3,0,0.5c-0.2,0.2-0.4,0.4-0.6,0.6C16.3,17.4,16.2,17.4,16.1,17.4z
		 M17.3,15.2c0.6-0.9,1.1-1.9,1.4-2.9c0.1-0.2,0.3-0.3,0.4-0.2c0.2,0.1,0.3,0.3,0.2,0.4c-0.4,1.1-0.9,2.2-1.5,3.1
		c-0.1,0.1-0.2,0.1-0.3,0.1c-0.1,0-0.1,0-0.2-0.1C17.2,15.6,17.2,15.4,17.3,15.2z"/>
</g>
</svg>
